<?xml version="1.0" encoding="UTF-8" standalone="no"?>
<svg
   xmlns:dc="http://purl.org/dc/elements/1.1/"
   xmlns:cc="http://creativecommons.org/ns#"
   xmlns:rdf="http://www.w3.org/1999/02/22-rdf-syntax-ns#"
   xmlns:svg="http://www.w3.org/2000/svg"
   xmlns="http://www.w3.org/2000/svg"
   xmlns:xlink="http://www.w3.org/1999/xlink"
   id="svg8"
   version="1.1"
   viewBox="0 0 135.60143 121.56476"
   height="121.56476mm"
   width="135.60143mm">
  <defs
     id="defs2">
    <linearGradient
       id="linearGradient898">
      <stop
         id="stop894"
         offset="0"
         style="stop-color:#ff7f2a;stop-opacity:1;" />
      <stop
         id="stop896"
         offset="1"
         style="stop-color:#ffff00;stop-opacity:1" />
    </linearGradient>
    <linearGradient
       gradientUnits="userSpaceOnUse"
       y2="146.94345"
       x2="135.69347"
       y1="20.321419"
       x1="27.970238"
       id="linearGradient900"
       xlink:href="#linearGradient898" />
  </defs>
  <metadata
     id="metadata5">
    <rdf:RDF>
      <cc:Work
         rdf:about="">
        <dc:format>image/svg+xml</dc:format>
        <dc:type
           rdf:resource="http://purl.org/dc/dcmitype/StillImage" />
        <dc:title></dc:title>
      </cc:Work>
    </rdf:RDF>
  </metadata>
  <g
     transform="translate(-26.136332,-3.5533364)"
     id="layer1">
    <g
       style="fill:#217867"
       id="g863">
      <g
         style="fill:#0088aa"
         id="g908">
        <path
           style="fill:#0088aa;fill-opacity:1;stroke:none;stroke-width:0.26935235;stroke-opacity:1"
           d="m 56.053739,49.125591 h 8.703159 c 0.899023,0 1.622785,0.723762 1.622785,1.622785 v 47.587458 c 0,0.899022 -0.723762,1.622784 -1.622785,1.622784 h -8.703159 c -0.899023,0 -1.622785,-0.723762 -1.622785,-1.622784 V 50.748376 c 0,-0.899023 0.723762,-1.622785 1.622785,-1.622785 z"
           id="rect837" />
        <path
           style="fill:#0088aa;fill-opacity:1;stroke:none;stroke-width:0.26935235;stroke-opacity:1"
           d="m 79.204778,49.125591 h 8.703159 c 0.899023,0 1.622785,0.723762 1.622785,1.622785 v 47.587458 c 0,0.899022 -0.723762,1.622784 -1.622785,1.622784 h -8.703159 c -0.899023,0 -1.622785,-0.723762 -1.622785,-1.622784 V 50.748376 c 0,-0.899023 0.723762,-1.622785 1.622785,-1.622785 z"
           id="rect839" />
        <path
           style="fill:#0088aa;fill-opacity:1;stroke:none;stroke-width:0.26935235;stroke-opacity:1"
           d="m 102.35582,49.125591 h 8.70316 c 0.89902,0 1.62278,0.723762 1.62278,1.622785 v 47.587458 c 0,0.899022 -0.72376,1.622784 -1.62278,1.622784 h -8.70316 c -0.89903,0 -1.62279,-0.723762 -1.62279,-1.622784 V 50.748376 c 0,-0.899023 0.72376,-1.622785 1.62279,-1.622785 z"
           id="rect841" />
        <path
           style="fill:#0088aa;fill-opacity:1;stroke:none;stroke-width:0.26935235;stroke-opacity:1"
           d="m 126.07381,49.125591 h 8.70316 c 0.89902,0 1.62279,0.723762 1.62279,1.622785 v 47.587458 c 0,0.899022 -0.72377,1.622784 -1.62279,1.622784 h -8.70316 c -0.89902,0 -1.62278,-0.723762 -1.62278,-1.622784 V 50.748376 c 0,-0.899023 0.72376,-1.622785 1.62278,-1.622785 z"
           id="rect843" />
        <path
           transform="rotate(90)"
           style="fill:#0088aa;fill-opacity:1;stroke:none;stroke-width:0.31755725;stroke-opacity:1"
           d="m 109.33757,-147.5311 h 1.40558 c 1.84833,0 3.33633,1.488 3.33633,3.33633 v 97.836348 c 0,1.848326 -1.488,3.336327 -3.33633,3.336327 h -1.40558 c -1.84832,0 -3.33633,-1.488001 -3.33633,-3.336327 v -97.836348 c 0,-1.84833 1.48801,-3.33633 3.33633,-3.33633 z"
           id="rect845" />
        <path
           id="rect847"
           transform="scale(0.26458333)"
           d="m 360.05664,47.808594 c -2.68665,0.07705 -5.28985,0.847286 -7.82812,2.148437 L 169.41406,137.41016 c -8.17575,7.33449 -9.55036,20.78883 5.79883,25.54296 h 369.77539 c 16.59114,-0.50103 18.13073,-21.5859 0.56836,-27.8125 L 368.38672,49.820312 c -2.87456,-1.47321 -5.64343,-2.088768 -8.33008,-2.011718 z m 0.69531,43.849609 A 21.718278,21.718278 0 0 1 382.4707,113.37695 21.718278,21.718278 0 0 1 360.75195,135.0957 21.718278,21.718278 0 0 1 339.0332,113.37695 21.718278,21.718278 0 0 1 360.75195,91.658203 Z"
           style="fill:#0088aa;fill-opacity:1;stroke:none;stroke-width:1.1071409;stroke-opacity:1" />
      </g>
    </g>
  </g>
</svg>
