<?xml version="1.0" encoding="UTF-8" standalone="no"?>
<svg
   xmlns:dc="http://purl.org/dc/elements/1.1/"
   xmlns:cc="http://creativecommons.org/ns#"
   xmlns:rdf="http://www.w3.org/1999/02/22-rdf-syntax-ns#"
   xmlns:svg="http://www.w3.org/2000/svg"
   xmlns="http://www.w3.org/2000/svg"
   xmlns:xlink="http://www.w3.org/1999/xlink"
   id="svg8"
   version="1.1"
   viewBox="0 0 135.46666 135.46666"
   height="135.46666mm"
   width="135.46666mm">
  <defs
     id="defs2">
    <linearGradient
       id="linearGradient1348">
      <stop
         id="stop1344"
         offset="0"
         style="stop-color:#773c74;stop-opacity:1;" />
      <stop
         id="stop1346"
         offset="1"
         style="stop-color:#000000;stop-opacity:1" />
    </linearGradient>
    <linearGradient
       id="linearGradient1105">
      <stop
         id="stop1101"
         offset="0"
         style="stop-color:#2a7fff;stop-opacity:1" />
      <stop
         id="stop1103"
         offset="1"
         style="stop-color:#000080;stop-opacity:1" />
    </linearGradient>
    <linearGradient
       id="linearGradient946">
      <stop
         id="stop942"
         offset="0"
         style="stop-color:#1a1a1a;stop-opacity:1" />
      <stop
         id="stop944"
         offset="1"
         style="stop-color:#808080;stop-opacity:1" />
    </linearGradient>
    <linearGradient
       id="linearGradient898">
      <stop
         id="stop894"
         offset="0"
         style="stop-color:#ff7f2a;stop-opacity:1;" />
      <stop
         id="stop896"
         offset="1"
         style="stop-color:#ffff00;stop-opacity:1" />
    </linearGradient>
    <linearGradient
       gradientUnits="userSpaceOnUse"
       y2="146.94345"
       x2="135.69347"
       y1="20.321419"
       x1="27.970238"
       id="linearGradient900"
       xlink:href="#linearGradient898" />
    <linearGradient
       gradientUnits="userSpaceOnUse"
       y2="96.645714"
       x2="99.366531"
       y1="-0.61845368"
       x1="1.8249624e-08"
       id="linearGradient948"
       xlink:href="#linearGradient946" />
    <linearGradient
       gradientTransform="translate(0.52916667)"
       gradientUnits="userSpaceOnUse"
       y2="106.51763"
       x2="128.55664"
       y1="45.616489"
       x1="23.706814"
       id="linearGradient1107"
       xlink:href="#linearGradient1105" />
    <linearGradient
       gradientUnits="userSpaceOnUse"
       y2="143.91963"
       x2="130.0238"
       y1="40.732136"
       x1="56.318451"
       id="linearGradient1350"
       xlink:href="#linearGradient1348" />
  </defs>
  <metadata
     id="metadata5">
    <rdf:RDF>
      <cc:Work
         rdf:about="">
        <dc:format>image/svg+xml</dc:format>
        <dc:type
           rdf:resource="http://purl.org/dc/dcmitype/StillImage" />
        <dc:title></dc:title>
      </cc:Work>
    </rdf:RDF>
  </metadata>
  <g
     transform="translate(-1.8249624e-8,0.61845368)"
     id="layer1">
    <rect
       ry="0.39891025"
       y="-0.61845368"
       x="1.8249624e-08"
       height="135.46666"
       width="135.46666"
       id="rect828"
       style="fill:none;fill-opacity:1;stroke:none;stroke-width:0.2768594;stroke-opacity:1" />
    <path
       id="path1323"
       d="m 65.42134,128.29899 c -1.07685,-0.3027 -1.88101,-0.70152 -4.58313,-2.27292 -1.1037,-0.64185 -4.40173,-2.54601 -7.32894,-4.23144 -2.92722,-1.68545 -6.97123,-4.02261 -8.98668,-5.19372 -2.01546,-1.1711 -5.78463,-3.34743 -8.37593,-4.83629 -6.0615,-3.4827 -15.20658,-8.76949 -17.46474,-10.09643 -0.96793,-0.56878 -1.88955,-1.17078 -2.04806,-1.3378 -1.46007,-1.538563 -2.38574,-3.112144 -2.84754,-4.840646 -0.18978,-0.710358 -0.233,-5.963575 -0.23258,-28.268777 5.2e-4,-29.842136 -0.0432,-28.478976 0.97845,-30.496977 0.64729,-1.278552 2.6605,-3.206482 4.25186,-4.071739 0.7198,-0.391378 3.11479,-1.75815 5.3222,-3.037276 2.20741,-1.279125 6.87961,-3.986962 10.38267,-6.017415 3.50306,-2.030454 7.31149,-4.228428 8.46318,-4.884388 2.13732,-1.217337 3.83075,-2.200708 9.07393,-5.269235 9.27572,-5.4285362 12.2298,-7.0315124 13.6075,-7.3838688 1.62326,-0.4151588 2.42073,-0.4330345 3.88778,-0.087144 1.59226,0.3754133 2.00724,0.6010754 16.18295,8.8001718 2.20741,1.276742 4.79871,2.773738 5.75845,3.326655 0.95974,0.552916 3.47253,2.007754 5.58396,3.232974 2.11143,1.225219 6.66584,3.852664 10.12092,5.838764 9.32971,5.363059 10.589,6.101347 11.22056,6.57836 0.94395,0.712956 2.07272,1.973386 2.54601,2.842979 1.02711,1.887125 0.97856,0.384492 0.97856,30.291986 0,17.768666 -0.0622,27.750868 -0.17659,28.354199 -0.23931,1.261858 -1.22809,3.208161 -2.1864,4.303654 -0.54704,0.625343 -1.41663,1.270623 -2.83395,2.102903 -2.78395,1.6348 -12.18664,7.08094 -17.92413,10.38187 -2.5913,1.49083 -5.61449,3.237 -6.71819,3.88034 -1.10371,0.64335 -4.38039,2.53535 -7.28151,4.20443 -2.90113,1.66908 -6.39546,3.68843 -7.76518,4.48744 -4.53487,2.64535 -5.62378,3.2453 -6.41664,3.53535 -1.09939,0.4022 -4.01376,0.4943 -5.18879,0.16399 z m 7.6569,-26.44931 c 6.31326,-0.64197 12.73551,-3.295156 18.00707,-7.439165 2.54236,-1.998557 6.96383,-6.891298 6.66479,-7.375161 -0.14157,-0.229058 -13.48854,-8.210229 -13.73003,-8.210229 -0.0956,0 -0.56871,0.432149 -1.05144,0.960332 -1.98611,2.173122 -5.28494,4.154126 -8.41608,5.054003 -5.83488,1.67692 -12.0134,0.351834 -16.84962,-3.613684 -5.14623,-4.219712 -7.64232,-12.205802 -5.86197,-18.754997 1.10202,-4.053879 3.92672,-8.109138 7.17037,-10.29409 7.91221,-5.329745 17.09672,-4.234993 23.78964,2.835618 0.73895,0.780654 1.72799,1.982008 2.19785,2.669673 0.46986,0.687666 0.94332,1.250302 1.05213,1.250302 0.2025,0 5.86009,-3.271889 13.56957,-7.847533 0.35991,-0.213606 0.65437,-0.480019 0.65437,-0.592031 0,-0.112011 -0.30385,-0.723632 -0.67524,-1.359158 -2.7416,-4.691594 -8.60811,-10.150232 -13.72089,-12.766959 -5.93581,-3.037953 -10.58278,-4.201522 -16.75187,-4.19456 -3.72446,0.0042 -5.10792,0.172841 -8.37878,1.021327 -2.95394,0.766272 -4.46184,1.317185 -6.77629,2.475716 -5.90249,2.954583 -10.47917,7.035368 -14.17281,12.637166 -1.26038,1.911482 -2.89464,5.217533 -3.6238,7.330805 -2.75359,7.980556 -2.50568,16.924714 0.68498,24.712675 2.67601,6.531758 8.34309,13.076989 14.48826,16.733321 4.23502,2.519797 9.61711,4.328129 14.37572,4.830109 1.37709,0.14527 5.66524,0.10825 7.35407,-0.0635 z m 25.41469,-24.700565 0.0503,-1.414263 1.43298,-0.111556 c 2.11599,-0.164726 2.9959,-0.138644 3.2303,0.09575 0.12707,0.127072 0.20939,0.744528 0.20939,1.570488 v 1.361089 h 1.74499 1.74498 v -1.296275 c 0,-1.703304 0.1414,-1.8447 1.84471,-1.8447 h 1.29627 v -1.744986 -1.744987 h -1.36109 c -0.82596,0 -1.44341,-0.08233 -1.57049,-0.209398 -0.23553,-0.235536 -0.29668,-4.094584 -0.0705,-4.45041 0.0808,-0.127114 0.68281,-0.230496 1.5242,-0.261748 l 1.39065,-0.05165 0.0506,-1.643154 c 0.0368,-1.195195 -0.0108,-1.683336 -0.17449,-1.790544 -0.12378,-0.08107 -0.7626,-0.134399 -1.4196,-0.118522 -0.86059,0.0208 -1.23792,-0.03964 -1.3497,-0.216188 -0.0853,-0.134784 -0.15635,-0.814362 -0.15781,-1.510175 l -0.003,-1.265115 h -1.73794 -1.73792 l -0.0506,1.439614 -0.0507,1.439613 -2.39936,0.04855 -2.39935,0.04855 v -1.488163 -1.488163 h -1.74499 c -0.95974,0 -1.75076,0.0589 -1.75781,0.130875 -0.007,0.07198 -0.0416,0.680544 -0.0768,1.352364 -0.0352,0.671819 -0.0687,1.280384 -0.0744,1.352364 -0.006,0.07198 -0.5537,0.130874 -1.21767,0.130874 -1.81584,0 -1.75926,-0.06234 -1.75926,1.938154 v 1.726317 h 1.37462 c 0.9091,0 1.43785,0.07618 1.56133,0.22496 0.18753,0.225959 0.12601,4.190826 -0.0699,4.507884 -0.052,0.08422 -0.71819,0.153117 -1.48032,0.153117 h -1.38569 v 1.726317 c 0,2.01426 0.007,2.021305 1.68109,1.841964 0.99372,-0.106419 1.0949,-0.08523 1.28446,0.268965 0.13458,0.251457 0.16478,0.737667 0.0873,1.405283 -0.0652,0.56144 -0.0656,1.106281 -0.001,1.210759 0.0751,0.121586 0.7247,0.172043 1.80466,0.140184 l 1.68723,-0.04977 z m 0.11311,-5.357239 c -0.0481,-0.125292 -0.0652,-1.205002 -0.0381,-2.399356 l 0.0493,-2.171553 2.25482,-0.04906 c 1.68671,-0.0367 2.29057,0.0073 2.39669,0.174499 0.23214,0.36584 0.1784,4.223284 -0.0622,4.463877 -0.3077,0.307693 -4.48171,0.290995 -4.60044,-0.01841 z"
       style="fill:url(#linearGradient1350);stroke-width:0.1744986;fill-opacity:1" />
  </g>
</svg>
