<?xml version="1.0" encoding="UTF-8" standalone="no"?>
<svg
   xmlns:dc="http://purl.org/dc/elements/1.1/"
   xmlns:cc="http://creativecommons.org/ns#"
   xmlns:rdf="http://www.w3.org/1999/02/22-rdf-syntax-ns#"
   xmlns:svg="http://www.w3.org/2000/svg"
   xmlns="http://www.w3.org/2000/svg"
   xmlns:xlink="http://www.w3.org/1999/xlink"
   id="svg8"
   version="1.1"
   viewBox="0 0 135.46666 135.46666"
   height="135.46666mm"
   width="135.46666mm">
  <defs
     id="defs2">
    <linearGradient
       id="linearGradient898">
      <stop
         id="stop894"
         offset="0"
         style="stop-color:#ff7f2a;stop-opacity:1;" />
      <stop
         id="stop896"
         offset="1"
         style="stop-color:#ffff00;stop-opacity:1" />
    </linearGradient>
    <linearGradient
       gradientUnits="userSpaceOnUse"
       y2="146.94345"
       x2="135.69347"
       y1="20.321419"
       x1="27.970238"
       id="linearGradient900"
       xlink:href="#linearGradient898" />
  </defs>
  <metadata
     id="metadata5">
    <rdf:RDF>
      <cc:Work
         rdf:about="">
        <dc:format>image/svg+xml</dc:format>
        <dc:type
           rdf:resource="http://purl.org/dc/dcmitype/StillImage" />
        <dc:title></dc:title>
      </cc:Work>
    </rdf:RDF>
  </metadata>
  <g
     transform="translate(-1.8249624e-8,0.61845368)"
     id="layer1">
    <rect
       ry="0.39891025"
       y="-0.61845368"
       x="1.8249624e-08"
       height="135.46666"
       width="135.46666"
       id="rect828"
       style="fill:none;fill-opacity:1;stroke:none;stroke-width:0.2768594;stroke-opacity:1" />
    <path
       id="path826"
       d="m 57.446943,113.51459 c -15.76092,-1.77975 -26.414764,-6.15795 -29.275387,-12.03072 -0.544949,-1.11877 -0.567857,-1.39937 -0.659915,-8.082927 -0.05249,-3.808161 -0.0036,-6.882286 0.109128,-6.831395 0.112473,0.05089 1.661598,0.810102 3.442495,1.687131 3.362893,1.656108 6.338274,2.706453 10.433549,3.68318 13.710042,3.269857 34.585299,3.564967 49.289496,0.696792 5.940917,-1.158821 10.232821,-2.564316 14.511021,-4.75198 1.31918,-0.674568 2.48943,-1.266879 2.60054,-1.316248 0.11111,-0.04937 0.16508,3.025637 0.11992,6.833345 -0.08,6.752792 -0.0964,6.952602 -0.66324,8.122352 -0.8411,1.73573 -3.58461,4.33393 -6.01802,5.69927 -5.095601,2.85907 -12.654512,5.00723 -21.343543,6.06561 -4.535798,0.55249 -18.42079,0.69143 -22.546044,0.22559 z M 58.766129,89.407376 C 48.090093,88.621673 37.406524,86.233912 31.662895,83.349853 c -0.527671,-0.264962 -1.575143,-0.899 -2.327714,-1.408973 -1.069156,-0.724505 -1.422828,-1.123519 -1.617659,-1.825088 -0.274786,-0.989424 -0.357497,-14.449483 -0.08884,-14.449483 0.08975,0 1.196097,0.529576 2.45848,1.176832 5.648235,2.89599 14.45089,5.098545 24.50989,6.132735 5.182318,0.532806 15.785106,0.725925 21.198497,0.386108 12.608673,-0.791489 23.078598,-3.09589 29.596191,-6.514031 1.23921,-0.649905 2.35255,-1.181644 2.4741,-1.181644 0.13161,0 0.19042,2.99713 0.1454,7.410609 -0.0868,8.501746 0.12488,7.736214 -2.59205,9.377811 -5.04962,3.051025 -14.062133,5.456081 -24.706685,6.593167 -4.150688,0.44339 -17.774138,0.666541 -21.946414,0.35948 z m 0.719554,-21.128394 c -1.58302,-0.108526 -4.71309,-0.424238 -6.955699,-0.70158 C 41.138291,66.168595 33.486924,63.811288 28.48486,60.16935 l -1.01937,-0.742189 v -7.555055 -7.555051 l 1.978774,1.06427 c 10.862598,5.842376 33.206346,8.487306 52.707388,6.239208 10.311984,-1.188774 18.232078,-3.235509 23.685338,-6.120827 l 2.21863,-1.173877 v 7.546592 7.546592 l -1.23767,0.978323 c -7.035518,5.561259 -28.658462,9.161853 -47.332267,7.881646 z M 55.528127,47.05168 C 44.071637,45.971813 33.883892,43.118918 28.974865,39.615911 l -1.56383,-1.115929 0.09624,-2.200509 c 0.122997,-2.812067 0.819862,-4.332657 2.949934,-6.436835 4.512894,-4.458047 12.888593,-7.426896 25.31077,-8.971654 4.943095,-0.614697 18.918676,-0.607845 24.105087,0.01182 15.210178,1.817291 25.376204,6.442082 27.720044,12.610572 0.31604,0.831755 0.46251,1.821601 0.46251,3.125695 v 1.908471 l -1.25922,0.947762 c -4.87926,3.67241 -15.740532,6.618172 -28.36244,7.692383 -4.090226,0.348104 -18.68947,0.261419 -22.90583,-0.136005 z"
       style="fill:url(#linearGradient900);fill-opacity:1;stroke-width:0.23985159" />
  </g>
</svg>
