<?xml version="1.0" encoding="UTF-8" standalone="no"?>
<svg
   xmlns:dc="http://purl.org/dc/elements/1.1/"
   xmlns:cc="http://creativecommons.org/ns#"
   xmlns:rdf="http://www.w3.org/1999/02/22-rdf-syntax-ns#"
   xmlns:svg="http://www.w3.org/2000/svg"
   xmlns="http://www.w3.org/2000/svg"
   id="svg8"
   version="1.1"
   viewBox="0 0 135.46666 135.46666"
   height="135.46666mm"
   width="135.46666mm">
  <defs
     id="defs2" />
  <metadata
     id="metadata5">
    <rdf:RDF>
      <cc:Work
         rdf:about="">
        <dc:format>image/svg+xml</dc:format>
        <dc:type
           rdf:resource="http://purl.org/dc/dcmitype/StillImage" />
        <dc:title></dc:title>
      </cc:Work>
    </rdf:RDF>
  </metadata>
  <g
     transform="translate(-1.8249624e-8,0.61845368)"
     id="layer1">
    <rect
       ry="0.39891025"
       y="-0.61845368"
       x="1.8249624e-08"
       height="135.46666"
       width="135.46666"
       id="rect828"
       style="fill:none;fill-opacity:1;stroke:none;stroke-width:0.2768594;stroke-opacity:1" />
    <path
       id="path826"
       d="m 56.386287,118.29899 c -17.38607,-1.96327 -29.13846,-6.79292 -32.29405,-13.27124 -0.60114,-1.23413 -0.62641,-1.54367 -0.72796,-8.916381 -0.0579,-4.200831 -0.004,-7.591937 0.12038,-7.535798 0.12407,0.05614 1.83293,0.893633 3.79746,1.861095 3.70965,1.826874 6.99183,2.985523 11.50938,4.062963 15.12372,3.60702 38.15148,3.93256 54.371866,0.76864 6.5535,-1.27831 11.287957,-2.82873 16.007287,-5.241969 1.45521,-0.744125 2.74612,-1.397511 2.86869,-1.45197 0.12257,-0.05446 0.1821,3.337618 0.13229,7.537949 -0.0883,7.449091 -0.10633,7.669501 -0.73163,8.959871 -0.92783,1.9147 -3.95423,4.78081 -6.63855,6.28694 -5.621027,3.15387 -13.959357,5.52353 -23.544337,6.69105 -5.003496,0.60946 -20.320206,0.76272 -24.870826,0.24885 z m 1.45521,-26.592975 c -11.77687,-0.866719 -23.56205,-3.500689 -29.89792,-6.682131 -0.58208,-0.292283 -1.73756,-0.991698 -2.56773,-1.554255 -1.1794,-0.799211 -1.56954,-1.239369 -1.78446,-2.013278 -0.30312,-1.091446 -0.39436,-15.939407 -0.098,-15.939407 0.099,0 1.31943,0.584182 2.71198,1.298178 6.23064,3.194603 15.94096,5.624269 27.03717,6.765097 5.71668,0.587745 17.41275,0.800777 23.38433,0.425921 13.908786,-0.873102 25.458293,-3.415115 32.647933,-7.18571 1.36699,-0.716918 2.59513,-1.303486 2.72921,-1.303486 0.14518,0 0.21005,3.306172 0.16039,8.174736 -0.0957,9.378383 0.13776,8.533915 -2.85932,10.344782 -5.5703,3.365624 -15.512117,6.018672 -27.254257,7.273006 -4.578676,0.489109 -19.606876,0.735269 -24.209366,0.396547 z m 0.79375,-23.306999 c -1.74625,-0.119716 -5.19907,-0.467982 -7.67292,-0.773922 -12.56632,-1.554073 -21.00664,-4.154448 -26.52448,-8.171915 l -1.12448,-0.818719 v -8.334076 -8.334072 l 2.18281,1.174009 c 11.98267,6.444799 36.63034,9.362455 58.142186,6.88255 11.37528,-1.311352 20.112037,-3.569131 26.127597,-6.751962 l 2.4474,-1.294919 v 8.324741 8.324741 l -1.36529,1.079201 c -7.76097,6.134695 -31.613513,10.106556 -52.212823,8.694343 z m -4.36563,-23.416105 c -12.6378,-1.191215 -23.87603,-4.33828 -29.29124,-8.202491 l -1.72508,-1.230995 0.10616,-2.427409 c 0.13568,-3.102027 0.9044,-4.779409 3.25411,-7.100554 4.97823,-4.917729 14.21757,-8.192703 27.92063,-9.896745 5.45279,-0.678081 20.86943,-0.670522 26.590626,0.01304 16.77854,2.004676 27.992817,7.106342 30.578337,13.910881 0.34863,0.917519 0.5102,2.009431 0.5102,3.447994 v 2.105258 l -1.38906,1.045488 c -5.38238,4.051082 -17.363587,7.300589 -31.286973,8.485565 -4.51198,0.383998 -20.61659,0.288375 -25.26771,-0.150029 z"
       style="fill:#343a40;fill-opacity:1;stroke-width:0.26458332" />
  </g>
</svg>
