<?xml version="1.0" encoding="UTF-8" standalone="no"?>
<svg
   xmlns:dc="http://purl.org/dc/elements/1.1/"
   xmlns:cc="http://creativecommons.org/ns#"
   xmlns:rdf="http://www.w3.org/1999/02/22-rdf-syntax-ns#"
   xmlns:svg="http://www.w3.org/2000/svg"
   xmlns="http://www.w3.org/2000/svg"
   xmlns:xlink="http://www.w3.org/1999/xlink"
   id="svg8"
   version="1.1"
   viewBox="0 0 135.46666 135.46666"
   height="135.46666mm"
   width="135.46666mm">
  <defs
     id="defs2">
    <linearGradient
       id="linearGradient946">
      <stop
         id="stop942"
         offset="0"
         style="stop-color:#1a1a1a;stop-opacity:1" />
      <stop
         id="stop944"
         offset="1"
         style="stop-color:#808080;stop-opacity:1" />
    </linearGradient>
    <linearGradient
       id="linearGradient898">
      <stop
         id="stop894"
         offset="0"
         style="stop-color:#ff7f2a;stop-opacity:1;" />
      <stop
         id="stop896"
         offset="1"
         style="stop-color:#ffff00;stop-opacity:1" />
    </linearGradient>
    <linearGradient
       gradientUnits="userSpaceOnUse"
       y2="146.94345"
       x2="135.69347"
       y1="20.321419"
       x1="27.970238"
       id="linearGradient900"
       xlink:href="#linearGradient898" />
    <linearGradient
       gradientUnits="userSpaceOnUse"
       y2="96.645714"
       x2="99.366531"
       y1="-0.61845368"
       x1="1.8249624e-08"
       id="linearGradient948"
       xlink:href="#linearGradient946" />
  </defs>
  <metadata
     id="metadata5">
    <rdf:RDF>
      <cc:Work
         rdf:about="">
        <dc:format>image/svg+xml</dc:format>
        <dc:type
           rdf:resource="http://purl.org/dc/dcmitype/StillImage" />
        <dc:title></dc:title>
      </cc:Work>
    </rdf:RDF>
  </metadata>
  <g
     transform="translate(-1.8249624e-8,0.61845368)"
     id="layer1">
    <rect
       ry="0.39891025"
       y="-0.61845368"
       x="1.8249624e-08"
       height="135.46666"
       width="135.46666"
       id="rect828"
       style="fill:none;fill-opacity:1;stroke:none;stroke-width:0.2768594;stroke-opacity:1" />
    <path
       id="path940"
       d="m 85.858841,124.672 c -2.145783,-0.4751 -3.93245,-0.89124 -3.970383,-0.92476 -0.06427,-0.0568 0.812059,-4.39259 1.067616,-5.2822 0.08328,-0.29005 -0.309007,-0.63953 -1.417076,-1.26235 -0.842762,-0.47368 -2.06649,-1.24329 -2.7194,-1.71024 l -1.187113,-0.849 -2.320681,1.8141 c -1.276376,0.99776 -2.345176,1.78327 -2.375115,1.74558 -2.046416,-2.57561 -5.487695,-7.11122 -5.487695,-7.23278 0,-0.0916 0.987549,-0.9276 2.194545,-1.85779 1.207006,-0.93018 2.194555,-1.77299 2.194555,-1.8729 0,-0.0999 -0.233773,-0.76181 -0.519497,-1.47085 -0.285715,-0.70905 -0.703954,-2.00242 -0.929399,-2.87414 l -0.409912,-1.58495 -2.42338,-0.0605 c -3.811415,-0.0951 -3.465918,0.30631 -3.354518,-3.897651 0.05253,-1.980474 0.14874,-4.039763 0.213928,-4.576211 l 0.118524,-0.975363 2.894431,0.08079 2.894431,0.08079 0.417016,-1.299975 C 70.969089,89.946571 71.4972,88.607222 71.9133,87.685234 l 0.756564,-1.676347 -0.720685,-0.616954 c -0.39638,-0.339328 -1.371294,-1.204341 -2.166488,-1.922257 l -1.445802,-1.305294 0.60834,-0.668581 c 0.334592,-0.36773 1.693327,-1.875597 3.019421,-3.350822 1.326084,-1.475225 2.471025,-2.708732 2.54433,-2.741135 0.07334,-0.03237 1.106044,0.808535 2.295001,1.86872 l 2.161741,1.927625 1.310431,-0.838274 c 0.720743,-0.461051 1.969941,-1.124294 2.776002,-1.473879 0.806062,-0.349575 1.465571,-0.727656 1.465571,-0.840183 0,-0.112517 -0.17358,-1.372993 -0.385741,-2.801061 -0.212161,-1.428058 -0.294453,-2.677036 -0.182881,-2.775496 0.18629,-0.164402 7.747895,-1.242398 8.636841,-1.231282 0.307603,0.0038 0.451817,0.519115 0.70086,2.504192 0.172472,1.374636 0.4057,2.67675 0.518303,2.893571 0.135246,0.260427 0.685924,0.448665 1.622543,0.554641 0.779799,0.08824 2.107984,0.369372 2.951529,0.624775 l 1.533715,0.464366 1.341245,-2.079096 c 0.73769,-1.143509 1.4003,-2.232993 1.47248,-2.421079 0.0722,-0.188096 0.24091,-0.341983 0.37496,-0.341983 0.29435,0 7.75078,4.634342 7.75078,4.81729 0,0.07076 -0.58799,1.073163 -1.30664,2.227635 -0.71866,1.154472 -1.38532,2.239153 -1.48148,2.410402 -0.1074,0.191266 0.28825,0.8496 1.02582,1.706878 0.66036,0.767528 1.5062,1.861854 1.87964,2.431823 0.37344,0.569978 0.80156,1.034104 0.95138,1.031402 0.14982,-0.0029 1.42454,-0.374797 2.83271,-0.826871 l 2.56031,-0.821963 1.38301,4.17967 c 0.76065,2.298811 1.39159,4.298939 1.40207,4.444718 0.0105,0.14578 -1.21537,0.646683 -2.72413,1.113102 l -2.74318,0.848034 0.0702,1.569129 c 0.0386,0.863027 -0.0237,2.3063 -0.13836,3.207279 l -0.20854,1.638141 2.21098,0.88769 c 1.21605,0.48823 2.45122,0.98025 2.74482,1.09338 0.52492,0.20226 0.50511,0.27611 -1.18682,4.42358 -0.94636,2.31984 -1.74997,4.25092 -1.7858,4.2913 -0.0358,0.0404 -1.28332,-0.41625 -2.77219,-1.01471 l -2.70704,-1.08812 -0.77579,1.01471 c -0.42669,0.55809 -1.37485,1.6355 -2.10705,2.39425 l -1.33124,1.37954 1.3748,2.56305 1.3748,2.56304 -3.11161,1.64069 c -1.71137,0.90238 -3.55258,1.89441 -4.09157,2.2045 l -0.97997,0.56381 -1.398105,-2.64022 -1.398115,-2.64021 -1.292516,0.30045 c -0.710878,0.16525 -2.127925,0.37874 -3.148984,0.47442 l -1.856487,0.17396 -0.383115,1.74894 c -0.210719,0.96191 -0.471031,2.18783 -0.578487,2.72428 -0.254782,1.27193 -0.417045,1.27798 -5.29683,0.19757 z m 9.265886,-15.76947 c 5.214443,-1.39497 8.900143,-6.20832 8.900143,-11.623122 0,-7.482771 -7.448707,-13.223644 -14.705144,-11.333579 -1.998189,0.520462 -3.556737,1.376221 -5.137317,2.820791 -3.69907,3.380732 -4.873816,9.062358 -2.780749,13.44901 1.681876,3.52488 5.084717,6.27309 8.480528,6.84905 1.354037,0.22966 4.094857,0.14488 5.242539,-0.16215 z M 31.491738,84.613194 c -3.213713,-1.180801 -5.877007,-2.248569 -5.918425,-2.372823 -0.04145,-0.124255 0.530594,-1.855924 1.271143,-3.848163 0.74054,-1.99224 1.346445,-3.648761 1.346445,-3.681154 0,-0.03238 -0.735364,-0.583654 -1.634136,-1.224998 C 25.657992,72.844702 24.123509,71.560876 23.1468,70.6331 l -1.775828,-1.686861 -3.418311,1.978115 c -1.880076,1.087957 -3.50026,1.976415 -3.600419,1.974333 -0.179701,-0.0038 -6.3999913,-10.711971 -6.3999913,-11.017604 0,-0.08673 1.4538908,-0.99847 3.2308653,-2.026078 1.776985,-1.027609 3.327359,-1.960984 3.445291,-2.074167 0.122582,-0.117644 -0.0086,-1.127029 -0.306524,-2.356602 -0.286517,-1.182949 -0.61895,-3.067065 -0.738726,-4.186925 C 13.463382,50.117453 13.272135,49.11959 13.158166,49.01984 13.044198,48.920091 11.255008,48.542733 9.1821956,48.181269 7.1093835,47.819804 5.3864713,47.497095 5.3535145,47.464135 5.2670876,47.37768 7.4804174,35.01028 7.6045665,34.886136 c 0.057109,-0.05715 1.8652921,0.201243 4.0181035,0.574195 2.152813,0.372949 3.948114,0.638136 3.989551,0.589301 0.04145,-0.04884 0.541061,-1.021474 1.110275,-2.161422 0.569214,-1.139947 1.517092,-2.763686 2.106399,-3.608309 0.589307,-0.844622 1.071474,-1.649178 1.071474,-1.787902 0,-0.138725 -1.148188,-1.608728 -2.551531,-3.266676 l -2.551522,-3.014449 2.246726,-1.914233 c 1.235704,-1.052828 3.289139,-2.779258 4.563195,-3.836513 1.274065,-1.057254 2.496752,-2.073657 2.717088,-2.258674 0.356681,-0.299496 0.686382,-5.12e-4 3.005879,2.725767 1.43289,1.684188 2.710155,3.062161 2.838353,3.062161 0.128208,0 0.750663,-0.261584 1.383231,-0.581298 1.237193,-0.625299 4.162926,-1.677626 5.844029,-2.101978 l 1.03632,-0.261591 V 12.908649 8.772783 h 6.455981 6.455972 l 0.06675,4.181561 0.06675,4.181563 1.950706,0.532192 c 1.072897,0.292705 2.887918,0.934737 4.033384,1.426737 1.145466,0.492 2.144828,0.894546 2.220817,0.894546 0.114236,0 3.430965,-3.864644 4.87075,-5.675386 0.387088,-0.486818 0.506786,-0.405404 5.303496,3.607333 2.699116,2.257967 4.907479,4.172601 4.907479,4.254743 0,0.08214 -1.149763,1.530734 -2.555016,3.219094 l -2.555017,3.069744 1.329933,1.986939 c 0.731457,1.092816 1.724287,2.806834 2.206272,3.808926 0.481985,1.002093 1.005846,1.821522 1.164127,1.82095 0.15828,-4.87e-4 1.818306,-0.274888 3.688946,-0.609597 1.870641,-0.334708 3.572638,-0.608562 3.782221,-0.608562 0.307384,0 0.589307,1.201681 1.458112,6.215086 0.592382,3.418295 1.017784,6.274356 0.945338,6.346798 -0.07248,0.07245 -1.655614,0.400938 -3.518156,0.729986 -1.862551,0.329052 -3.616997,0.653079 -3.898768,0.720067 -0.452342,0.107533 -0.530852,0.35784 -0.670596,2.137935 -0.138178,1.760015 -0.81522,5.183522 -1.244203,6.291349 -0.108563,0.280366 0.74033,0.882758 3.3967,2.410349 1.947794,1.120112 3.541438,2.076836 3.541438,2.126055 0,0.150242 -6.123873,10.680331 -6.346109,10.912242 -0.118992,0.124159 -1.677894,-0.634049 -3.649906,-1.775217 l -3.442206,-1.991934 -1.876217,1.72148 c -1.031917,0.946818 -2.271453,1.821762 -3.392488,2.75057 -0.512535,0.424649 -1.519747,1.146584 -1.523997,1.290196 -0.0038,0.143602 0.591399,1.894486 1.323659,3.890841 0.73225,1.996356 1.295132,3.665979 1.250849,3.710272 -0.04431,0.04431 -2.75566,1.054169 -6.025279,2.244185 -4.568056,1.662595 -5.986784,2.089611 -6.12626,1.84392 -0.09983,-0.175853 -0.608016,-1.510159 -1.129308,-2.965129 -0.521293,-1.45496 -1.110074,-3.033535 -1.308398,-3.507947 l -0.360586,-0.862568 -2.167691,0.170122 c -1.192222,0.09359 -3.155229,0.08948 -4.362235,-0.0095 -1.207006,-0.09855 -2.252246,-0.09464 -2.322763,0.0086 -0.07048,0.103378 -0.723922,1.839775 -1.452019,3.858658 -0.728096,2.018874 -1.383632,3.661424 -1.456746,3.650088 -0.07315,-0.01136 -2.762336,-0.986708 -5.976056,-2.167499 z M 48.429537,64.086912 c 1.792837,-0.326163 5.439191,-2.115135 6.95571,-3.412601 3.917457,-3.351588 5.96777,-7.73732 5.96777,-12.765353 0,-8.43427 -6.16001,-15.39208 -14.547407,-16.431497 -5.077955,-0.629295 -9.942804,1.061487 -13.612275,4.730959 -5.713618,5.713615 -6.544098,14.239811 -2.042577,20.970145 3.776707,5.646659 10.167978,8.201994 17.278779,6.908347 z m 58.756293,3.843539 -0.31934,-2.325942 -1.11601,-0.149686 c -0.61381,-0.08233 -1.68154,-0.305657 -2.37274,-0.496286 -0.6912,-0.190631 -1.31391,-0.3466 -1.38381,-0.3466 -0.0699,0 -0.64129,0.850392 -1.26974,1.889749 -0.62846,1.039367 -1.17,1.920166 -1.203425,1.957325 -0.0467,0.05195 -5.821871,-3.438204 -6.181063,-3.735498 -0.04297,-0.03557 0.459858,-0.93214 1.117427,-1.992363 l 1.195585,-1.927677 -1.505699,-1.877468 c -0.828142,-1.03261 -1.559007,-1.930768 -1.624147,-1.995907 -0.06513,-0.06514 -1.075399,0.20504 -2.245017,0.600398 -1.517369,0.512903 -2.155065,0.63478 -2.225983,0.425429 -0.948938,-2.801051 -2.085991,-6.577697 -2.004817,-6.658864 0.05816,-0.05812 1.00578,-0.408128 2.105912,-0.777788 l 2.000233,-0.672111 0.09187,-2.564945 0.09187,-2.564946 -1.751877,-0.668861 c -2.705066,-1.032792 -2.605976,-0.654378 -1.137789,-4.344791 0.712253,-1.790303 1.319447,-3.288241 1.34932,-3.32875 0.02989,-0.04051 1.017602,0.314779 2.194955,0.789527 l 2.140655,0.863178 0.37535,-0.545688 c 0.206451,-0.300126 0.955986,-1.158562 1.665651,-1.907633 l 1.290291,-1.361946 -1.095549,-2.032056 C 94.7654,31.06262 94.299574,30.128882 94.332788,30.105273 c 0.38258,-0.27193 6.170052,-3.288397 6.309202,-3.288397 0.10353,0 0.65025,0.888029 1.21492,1.973398 1.00667,1.934957 1.04135,1.970221 1.78017,1.810359 0.41443,-0.08967 1.51164,-0.263657 2.43825,-0.386634 0.92661,-0.122975 1.71786,-0.256712 1.75834,-0.297191 0.0405,-0.04048 0.25941,-0.946545 0.48651,-2.013483 0.2271,-1.066937 0.49296,-2.031398 0.5908,-2.143247 0.18828,-0.215229 6.56035,0.971817 6.88849,1.283248 0.10575,0.100371 -0.02,1.134978 -0.27936,2.299126 l -0.47163,2.116635 1.1328,0.650185 c 0.62302,0.357603 1.59876,0.964042 2.16829,1.347643 l 1.03552,0.697455 1.67368,-1.352275 c 0.92053,-0.743751 1.77127,-1.348554 1.89056,-1.344005 0.21477,0.0082 4.28867,5.107198 4.40368,5.511773 0.0328,0.115594 -0.7037,0.802395 -1.63681,1.526216 -0.93311,0.723825 -1.69656,1.402477 -1.69656,1.50812 0,0.105644 0.12533,0.500975 0.27851,0.878512 0.15319,0.377538 0.4659,1.344797 0.69493,2.149465 0.41465,1.45683 0.42097,1.463735 1.48932,1.627841 0.59009,0.09064 1.64897,0.172938 2.35306,0.182879 l 1.28016,0.01807 -9.6e-4,0.914397 c -4.9e-4,0.502918 -0.0731,2.163789 -0.16108,3.690824 l -0.15997,2.776428 -2.25724,-0.158669 -2.25725,-0.158669 -0.29077,0.917908 c -0.15992,0.504849 -0.57632,1.567416 -0.92533,2.361255 l -0.63455,1.443345 1.63678,1.498223 c 0.90022,0.82402 1.63677,1.570702 1.63677,1.659288 0,0.211921 -4.40543,5.146117 -4.69756,5.261395 -0.12404,0.04895 -0.68146,-0.337613 -1.23869,-0.859028 -0.55724,-0.521419 -1.30786,-1.204897 -1.66804,-1.518847 l -0.65487,-0.570815 -0.76622,0.54559 c -0.42141,0.300073 -1.39953,0.852378 -2.1736,1.227344 l -1.4074,0.681753 0.33319,2.250756 c 0.18326,1.237909 0.30393,2.270562 0.26818,2.294771 -0.0357,0.02416 -1.43662,0.236905 -3.11301,0.472664 -1.6764,0.235759 -3.27991,0.481938 -3.56335,0.547078 -0.48103,0.11054 -0.53663,-0.03648 -0.8347,-2.207514 z m 2.49629,-10.904031 c 2.93041,-0.613102 5.48571,-2.620829 6.73942,-5.295247 0.57382,-1.224055 0.64854,-1.679423 0.64716,-3.944134 -0.002,-2.333452 -0.0648,-2.689472 -0.71459,-4.018027 -0.91022,-1.860859 -2.55653,-3.504921 -4.40979,-4.403771 -1.30578,-0.633316 -1.71188,-0.707798 -3.89611,-0.714587 -2.14447,-0.0067 -2.60646,0.07119 -3.83268,0.645922 -1.85394,0.868943 -3.72557,2.661919 -4.658952,4.463156 -0.707545,1.365404 -0.760681,1.644302 -0.767232,4.027307 -0.0067,2.310414 0.05873,2.694159 0.666709,3.931659 1.434665,2.920218 4.163575,4.947417 7.179465,5.333347 0.77698,0.09943 1.48959,0.195163 1.58357,0.212747 0.094,0.01758 0.75235,-0.08968 1.46303,-0.238372 z"
       style="fill:url(#linearGradient948);stroke-width:0.2438391;fill-opacity:1" />
  </g>
</svg>
