<?xml version="1.0" encoding="UTF-8" standalone="no"?>
<svg
   xmlns:dc="http://purl.org/dc/elements/1.1/"
   xmlns:cc="http://creativecommons.org/ns#"
   xmlns:rdf="http://www.w3.org/1999/02/22-rdf-syntax-ns#"
   xmlns:svg="http://www.w3.org/2000/svg"
   xmlns="http://www.w3.org/2000/svg"
   xmlns:xlink="http://www.w3.org/1999/xlink"
   id="svg8"
   version="1.1"
   viewBox="0 0 135.46666 135.46666"
   height="135.46666mm"
   width="135.46666mm">
  <defs
     id="defs2">
    <linearGradient
       id="linearGradient946">
      <stop
         id="stop942"
         offset="0"
         style="stop-color:#1a1a1a;stop-opacity:1" />
      <stop
         id="stop944"
         offset="1"
         style="stop-color:#808080;stop-opacity:1" />
    </linearGradient>
    <linearGradient
       id="linearGradient898">
      <stop
         id="stop894"
         offset="0"
         style="stop-color:#ff7f2a;stop-opacity:1;" />
      <stop
         id="stop896"
         offset="1"
         style="stop-color:#ffff00;stop-opacity:1" />
    </linearGradient>
    <linearGradient
       gradientUnits="userSpaceOnUse"
       y2="146.94345"
       x2="135.69347"
       y1="20.321419"
       x1="27.970238"
       id="linearGradient900"
       xlink:href="#linearGradient898" />
    <linearGradient
       gradientUnits="userSpaceOnUse"
       y2="96.645714"
       x2="99.366531"
       y1="-0.61845368"
       x1="1.8249624e-08"
       id="linearGradient948"
       xlink:href="#linearGradient946" />
  </defs>
  <metadata
     id="metadata5">
    <rdf:RDF>
      <cc:Work
         rdf:about="">
        <dc:format>image/svg+xml</dc:format>
        <dc:type
           rdf:resource="http://purl.org/dc/dcmitype/StillImage" />
        <dc:title></dc:title>
      </cc:Work>
    </rdf:RDF>
  </metadata>
  <g
     transform="translate(-1.8249624e-8,0.61845368)"
     id="layer1">
    <rect
       ry="0.39891025"
       y="-0.61845368"
       x="1.8249624e-08"
       height="135.46666"
       width="135.46666"
       id="rect828"
       style="fill:none;fill-opacity:1;stroke:none;stroke-width:0.2768594;stroke-opacity:1" />
    <path
       id="path1012"
       d="m 66.313249,130.0423 c -0.700294,-0.0751 -0.868028,-0.16475 -0.611773,-0.32689 0.289758,-0.18333 0.274821,-0.22405 -0.08332,-0.22712 -1.492355,-0.0129 -2.945817,-1.39522 -30.925275,-29.41341 C 7.151673,72.495553 5.497133,70.755453 5.485168,69.356922 5.482268,69.024907 5.431538,68.997613 5.275267,69.244114 4.98831,69.696753 4.773855,67.937231 4.938232,66.47887 c 0.08519,-0.755845 0.200292,-1.037381 0.336351,-0.822742 0.157503,0.248461 0.207731,0.222204 0.210585,-0.11009 0.01249,-1.455346 1.432653,-2.983462 20.175027,-21.708723 l 18.981201,-18.963874 6.854708,6.850752 c 4.695066,4.692354 6.809256,6.966399 6.710442,7.217816 -0.454812,1.157224 -0.629561,3.279039 -0.384593,4.669755 0.529075,3.003595 2.100142,5.382852 4.623109,7.001324 l 1.284726,0.824147 v 16.745969 16.745969 l -1.444861,0.98118 c -5.599155,3.80231 -6.169069,11.20337 -1.215834,15.789187 2.017302,1.86767 3.577078,2.43791 6.698403,2.44893 2.174134,0.007 2.608966,-0.0671 3.898255,-0.67096 2.844658,-1.33219 4.630027,-3.36467 5.548865,-6.316887 0.606236,-1.94783 0.590189,-4.02222 -0.04569,-5.90983 -0.740973,-2.19955 -2.309854,-4.2611 -4.078989,-5.35991 l -0.795306,-0.49398 V 69.143681 c 0,-8.939276 0.08345,-16.253228 0.185444,-16.253228 0.101995,0 2.815726,2.631995 6.03052,5.848879 l 5.84507,5.848885 -0.279843,1.111343 c -1.7449,6.929623 4.374889,13.637503 11.29674,12.382333 4.321098,-0.78356 7.489788,-3.98956 8.248338,-8.345462 0.72341,-4.154137 -1.64811,-8.612164 -5.61374,-10.552802 -1.548048,-0.757562 -1.721538,-0.786993 -4.606317,-0.781397 l -2.997668,0.0058 -6.605253,-6.621295 -6.605253,-6.621297 0.242782,-0.846543 C 78.018583,42.285681 77.531038,39.180334 76.2976,37.071498 75.504291,35.715149 73.62197,33.987964 72.092389,33.212867 70.338514,32.324111 67.85746,31.932832 66.1628,32.277734 l -1.331808,0.27105 -6.973002,-6.958139 -6.972998,-6.958139 5.871805,-5.890968 c 5.651999,-5.6704521 7.358013,-7.0729691 8.616658,-7.0837771 0.332291,-0.0029 0.358548,-0.05308 0.110084,-0.210584 -0.214637,-0.13606 0.0669,-0.251156 0.822748,-0.336351 1.458359,-0.164377 3.217885,0.05007 2.765242,0.337035 -0.246757,0.156434 -0.219941,0.207057 0.111192,0.2099 1.492354,0.01282 2.945815,1.395221 30.925279,29.4134121 27.5412,27.579332 29.19575,29.319423 29.20771,30.717963 0.003,0.332015 0.0536,0.359309 0.2099,0.112799 0.13733,-0.216618 0.25392,0.02849 0.34925,0.734128 0.18028,1.334741 -0.0618,3.3061 -0.35015,2.851305 -0.15487,-0.244262 -0.20617,-0.21621 -0.209,0.114261 -0.0119,1.398254 -1.66497,3.137094 -29.08535,30.595601 -27.856654,27.89538 -29.310901,29.27825 -30.80293,29.29106 -0.371248,0.003 -0.381592,0.0391 -0.06931,0.24096 0.282287,0.18242 0.197507,0.23885 -0.367064,0.2443 -0.403771,0.004 -0.954367,0.0443 -1.223548,0.0897 -0.269181,0.0454 -0.923593,0.036 -1.454248,-0.0209 z"
       style="fill:#de4c36;stroke-width:0.24470955;fill-opacity:1" />
  </g>
</svg>
